<svg width="31" height="30" viewBox="0 0 31 30" fill="none" xmlns="http://www.w3.org/2000/svg">
<g clip-path="url(#clip0_1030_6847)">
<path d="M15.5 0C24.0608 0 31 6.71531 31 15C31 23.2847 24.0608 30 15.5 30C6.93916 30 0 23.2847 0 15C0 6.71531 6.93916 0 15.5 0ZM23.9339 18.2972H10.0169C9.86662 18.298 9.72253 18.3551 9.61484 18.4566L6.86553 21.0956C6.82562 21.1338 6.79838 21.1826 6.7873 21.2358C6.77622 21.2891 6.78181 21.3443 6.80334 21.3944C6.82488 21.4445 6.86138 21.4873 6.90819 21.5173C6.95499 21.5472 7.00996 21.563 7.06606 21.5625H20.9831C21.1334 21.5617 21.2775 21.5045 21.3852 21.4031L24.1345 18.7631C24.174 18.7249 24.201 18.6762 24.2119 18.6231C24.2228 18.57 24.2171 18.515 24.1956 18.4651C24.1741 18.4152 24.1377 18.3725 24.0912 18.3426C24.0446 18.3127 23.9898 18.2969 23.9339 18.2972ZM20.9831 13.3359H7.06606L7.00019 13.3425C6.95105 13.3534 6.90584 13.3769 6.86926 13.4105C6.83269 13.4441 6.80609 13.4865 6.79224 13.5334C6.77839 13.5804 6.77779 13.63 6.79051 13.6772C6.80323 13.7244 6.8288 13.7675 6.86456 13.8019L9.61581 16.4419L9.68363 16.4981C9.7805 16.5637 9.89675 16.6012 10.0169 16.6012H23.9339L23.9998 16.5947C24.049 16.5838 24.0942 16.5603 24.1307 16.5267C24.1673 16.4931 24.1939 16.4507 24.2078 16.4037C24.2216 16.3568 24.2222 16.3072 24.2095 16.26C24.1968 16.2128 24.1712 16.1697 24.1354 16.1353L21.3842 13.4953L21.3164 13.4391C21.2189 13.3724 21.1025 13.3364 20.9831 13.3359ZM23.9339 8.4375H10.0169C9.86662 8.43834 9.72253 8.49546 9.61484 8.59688L6.86553 11.2369C6.82596 11.2751 6.79901 11.3238 6.78813 11.3769C6.77724 11.43 6.78291 11.485 6.8044 11.5349C6.8259 11.5848 6.86225 11.6275 6.90884 11.6574C6.95543 11.6873 7.01016 11.7031 7.06606 11.7028H20.9831C21.1334 11.702 21.2775 11.6449 21.3852 11.5434L24.1345 8.90438C24.1744 8.86621 24.2016 8.8174 24.2127 8.76417C24.2238 8.71094 24.2182 8.65573 24.1967 8.60559C24.1751 8.55545 24.1386 8.51267 24.0918 8.48273C24.045 8.45279 23.99 8.43704 23.9339 8.4375Z" fill="black"/>
</g>
<defs>
<clipPath id="clip0_1030_6847">
<rect width="31" height="30" fill="white"/>
</clipPath>
</defs>
</svg>
