<svg width="31" height="30" viewBox="0 0 31 30" fill="none" xmlns="http://www.w3.org/2000/svg">
<path d="M4.55605 26.7476L2.12109 0.316895H28.878L26.4406 26.7436L15.4833 29.6834L4.55605 26.7476Z" fill="#1572B6"/>
<path d="M15.5 27.4364L24.3541 25.0608L26.4372 2.47778H15.5V27.4364Z" fill="#33A9DC"/>
<path d="M15.5 12.0538H19.9325L20.2386 8.73432H15.5V5.49268H23.8995L23.8191 6.36244L22.9957 15.2954H15.5V12.0538Z" fill="white"/>
<path d="M15.5196 20.4724L15.5048 20.4767L11.7744 19.5019L11.5359 16.9165H8.17383L8.64295 22.0064L15.5044 23.8493L15.5196 23.8451V20.4724Z" fill="#EBEBEB"/>
<path d="M19.6483 15.1582L19.2448 19.4993L15.5088 20.4752V23.8479L22.3758 22.0062L22.4261 21.4584L23.0089 15.1582H19.6483Z" fill="white"/>
<path d="M15.5119 5.49268V8.73432H7.42092L7.35384 8.00588L7.20126 6.36244L7.12109 5.49268H15.5119ZM15.5005 12.0542V15.2959H11.8171L11.75 14.5674L11.5972 12.924L11.5173 12.0542H15.5005Z" fill="#EBEBEB"/>
</svg>
