<svg width="31" height="31" viewBox="0 0 31 31" fill="none" xmlns="http://www.w3.org/2000/svg">
<g clip-path="url(#clip0_1030_6783)">
<path d="M15.501 6.20044C11.3676 6.20044 8.78512 8.2663 7.75098 12.3997C9.30049 10.3336 11.1094 9.55885 13.1755 10.0754C14.3552 10.3695 15.1982 11.2249 16.1319 12.1728C17.6514 13.7148 19.4101 15.5 23.251 15.5C27.3841 15.5 29.9668 13.4339 31.001 9.29947C29.451 11.3666 27.6427 12.1418 25.5762 11.625C24.3968 11.3307 23.5547 10.4755 22.6198 9.52761C21.1013 7.9856 19.343 6.20044 15.501 6.20044ZM7.75098 15.5C3.6178 15.5 1.03512 17.5661 0.000976562 21.7004C1.55082 19.6333 3.35899 18.8581 5.42549 19.375C6.60519 19.6692 7.44824 20.5244 8.38188 21.4723C9.90136 23.0143 11.6601 24.7995 15.501 24.7995C19.6341 24.7995 22.2168 22.7336 23.251 18.6002C21.701 20.6664 19.8927 21.4411 17.8262 20.9245C16.6468 20.6305 15.8047 19.7751 14.8698 18.8271C13.3513 17.2851 11.593 15.5 7.75098 15.5Z" fill="#38BDF8"/>
</g>
<defs>
<clipPath id="clip0_1030_6783">
<rect width="31" height="31" fill="white"/>
</clipPath>
</defs>
</svg>
