<svg width="22" height="30" viewBox="0 0 22 30" fill="none" xmlns="http://www.w3.org/2000/svg">
<g clip-path="url(#clip0_1030_6768)">
<path d="M0 24.1878L0.182445 23.9338L8.81091 7.65059L8.82913 7.47819L5.02562 0.372466C4.7068 -0.222748 3.80961 -0.0722348 3.70511 0.59409L0 24.1878Z" fill="#FFC24A"/>
<path d="M0.107422 23.9943L0.245352 23.7267L8.7835 7.61402L4.98936 0.479408C4.67406 -0.109566 3.87329 0.0406046 3.76982 0.699921L0.107422 23.9943Z" fill="#FFA712"/>
<path d="M11.602 12.853L14.4341 9.96834L11.6012 4.58971C11.3323 4.08057 10.5814 4.07903 10.3154 4.58971L8.80176 7.4604V7.70484L11.602 12.853Z" fill="#F4BD62"/>
<path d="M11.5514 12.7328L14.3048 9.9284L11.5514 4.71413C11.29 4.21917 10.6548 4.16729 10.3962 4.6637L8.87465 7.579L8.8291 7.72806L11.5514 12.7328Z" fill="#FFA50E"/>
<path d="M0 24.1878L0.0826719 24.1051L0.383109 23.9837L11.4241 13.0435L11.564 12.6648L8.80971 7.44482L0 24.1878Z" fill="#F6820C"/>
<path d="M11.9557 29.7052L21.9481 24.1627L19.0946 6.6845C19.0053 6.13767 18.3308 5.92151 17.9372 6.31356L0 24.1878L9.93506 29.7048C10.2439 29.8762 10.5917 29.9662 10.9453 29.9663C11.299 29.9664 11.6468 29.8765 11.9557 29.7052Z" fill="#FDE068"/>
<path d="M21.859 24.1161L19.0272 6.77067C18.9387 6.22793 18.3777 6.0034 17.9871 6.39255L0.111328 24.1537L9.93734 29.616C10.2438 29.7862 10.5889 29.8756 10.9399 29.8757C11.2909 29.8757 11.6361 29.7865 11.9426 29.6165L21.859 24.1161Z" fill="#FCCA3F"/>
<path d="M11.9555 29.5418C11.6467 29.7131 11.2989 29.803 10.9452 29.8029C10.5915 29.8029 10.2438 29.7128 9.93498 29.5414L0.0799219 24.1038L0 24.1878L9.93498 29.7047C10.2438 29.8762 10.5916 29.9662 10.9452 29.9663C11.2989 29.9664 11.6467 29.8765 11.9556 29.7052L21.948 24.1627L21.9235 24.0129L11.9555 29.5418Z" fill="#EEAB37"/>
</g>
<defs>
<clipPath id="clip0_1030_6768">
<rect width="22" height="30" fill="white"/>
</clipPath>
</defs>
</svg>
