<svg width="31" height="31" viewBox="0 0 31 31" fill="none" xmlns="http://www.w3.org/2000/svg">
<g clip-path="url(#clip0_1030_6804)">
<path d="M23.7344 0H7.26562C3.25293 0 0 3.25293 0 7.26562V23.7344C0 27.7471 3.25293 31 7.26562 31H23.7344C27.7471 31 31 27.7471 31 23.7344V7.26562C31 3.25293 27.7471 0 23.7344 0Z" fill="#2396ED"/>
<path d="M17.0969 14.7883H19.6056V12.5186H17.0969V14.7883ZM14.1104 14.7883H16.619V12.5186H14.1104V14.7883ZM11.1836 14.7883H13.6923V12.5186H11.1836V14.7883ZM8.25678 14.7883H10.7059V12.5186H8.2569L8.25678 14.7883ZM5.27036 14.7883H7.77906V12.5186H5.27036V14.7883ZM8.2569 12.0407H10.7058V9.77105H8.2569V12.0407ZM11.1837 12.0407H13.6923V9.77105H11.1836L11.1837 12.0407ZM14.1104 12.0407H16.619V9.77105H14.1104V12.0407ZM14.1104 9.2931H16.619V7.02344H14.1104V9.2931ZM27.6094 13.7731C27.6094 13.7731 26.5342 12.7576 24.3242 13.116C24.0853 11.3838 22.2337 10.3684 22.2337 10.3684C22.2337 10.3684 20.5015 12.459 21.7558 14.7885C21.3975 14.9677 20.8001 15.2066 19.9042 15.2066H3.47854C3.1798 16.3415 3.1798 23.8673 11.4225 23.8673C17.3358 23.8673 21.7558 21.1198 23.8464 16.1024C26.9523 16.3414 27.6094 13.7731 27.6094 13.7731Z" fill="white"/>
</g>
<defs>
<clipPath id="clip0_1030_6804">
<rect width="31" height="31" fill="white"/>
</clipPath>
</defs>
</svg>
