<svg width="31" height="31" viewBox="0 0 31 31" fill="none" xmlns="http://www.w3.org/2000/svg">
<g clip-path="url(#clip0_1030_6826)">
<path d="M23.7344 0H7.26562C3.25293 0 0 3.25293 0 7.26562V23.7344C0 27.7471 3.25293 31 7.26562 31H23.7344C27.7471 31 31 27.7471 31 23.7344V7.26562C31 3.25293 27.7471 0 23.7344 0Z" fill="#F4F2ED"/>
<mask id="mask0_1030_6826" style="mask-type:luminance" maskUnits="userSpaceOnUse" x="7" y="3" width="17" height="25">
<path d="M7.38672 3.39062H23.5358V27.6094H7.38672V3.39062Z" fill="white"/>
</mask>
<g mask="url(#mask0_1030_6826)">
<path d="M11.4242 27.6093C13.6524 27.6093 15.4607 25.801 15.4607 23.5729V19.5364H11.4242C9.19611 19.5364 7.3877 21.3448 7.3877 23.5729C7.3877 25.801 9.19611 27.6093 11.4242 27.6093Z" fill="#0ACF83"/>
<path d="M7.3877 15.5C7.3877 13.2719 9.19611 11.4636 11.4242 11.4636H15.4607V19.5365H11.4242C9.19611 19.5365 7.3877 17.7282 7.3877 15.5Z" fill="#A259FF"/>
<path d="M7.3877 7.42704C7.3877 5.19892 9.19611 3.39062 11.4242 3.39062H15.4607V11.4636H11.4242C9.19611 11.4636 7.3877 9.65517 7.3877 7.42704Z" fill="#F24E1E"/>
<path d="M15.4609 3.39062H19.4974C21.7255 3.39062 23.5339 5.19892 23.5339 7.42704C23.5339 9.65517 21.7255 11.4636 19.4974 11.4636H15.4609V3.39062Z" fill="#FF7262"/>
<path d="M23.5339 15.5C23.5339 17.7282 21.7255 19.5365 19.4974 19.5365C17.2692 19.5365 15.4609 17.7282 15.4609 15.5C15.4609 13.2719 17.2692 11.4636 19.4974 11.4636C21.7255 11.4636 23.5339 13.2719 23.5339 15.5Z" fill="#1ABCFE"/>
</g>
</g>
<defs>
<clipPath id="clip0_1030_6826">
<rect width="31" height="31" fill="white"/>
</clipPath>
</defs>
</svg>
