<svg width="31" height="31" viewBox="0 0 31 31" fill="none" xmlns="http://www.w3.org/2000/svg">
<g clip-path="url(#clip0_1030_6812)">
<path d="M23.7344 0H7.26562C3.25293 0 0 3.25293 0 7.26562V23.7344C0 27.7471 3.25293 31 7.26562 31H23.7344C27.7471 31 31 27.7471 31 23.7344V7.26562C31 3.25293 27.7471 0 23.7344 0Z" fill="#F4F2ED"/>
<path d="M17.5506 4.60907L24.3046 4.60156L12.9733 15.927L10.0201 18.8636L6.66016 15.4995L17.5506 4.60907ZM17.4878 14.7212C17.5754 14.6055 17.7367 14.6626 17.8591 14.6477L24.2988 14.6493L18.4297 20.5127L15.0523 17.156L17.4878 14.7212Z" fill="#44D1FD"/>
<path d="M11.6855 20.5184L15.0522 17.156L18.4296 20.5127L18.4437 20.5276L15.053 23.8868L11.6855 20.5184Z" fill="#1FBCFD"/>
<path d="M15.0527 23.8867L18.4434 20.5276L24.3008 26.3908C22.0945 26.3958 19.8889 26.3891 17.6834 26.3941C17.5577 26.4222 17.4799 26.3073 17.3997 26.2362L15.0527 23.8867Z" fill="#08589C"/>
</g>
<defs>
<clipPath id="clip0_1030_6812">
<rect width="31" height="31" fill="white"/>
</clipPath>
</defs>
</svg>
