<svg width="31" height="31" viewBox="0 0 31 31" fill="none" xmlns="http://www.w3.org/2000/svg">
<g clip-path="url(#clip0_1030_6747)">
<path d="M23.7344 0H7.26562C3.25293 0 0 3.25293 0 7.26562V23.7344C0 27.7471 3.25293 31 7.26562 31H23.7344C27.7471 31 31 27.7471 31 23.7344V7.26562C31 3.25293 27.7471 0 23.7344 0Z" fill="#F4F2ED"/>
<path d="M14.7068 3.39726C14.6548 3.40198 14.489 3.41857 14.3398 3.43032C10.9 3.74044 7.67795 5.59656 5.63716 8.44929C4.50093 10.0355 3.77401 11.8347 3.49949 13.7406C3.40249 14.4059 3.39062 14.6024 3.39062 15.5043C3.39062 16.4064 3.40249 16.6029 3.49961 17.2681C4.15763 21.8159 7.39398 25.637 11.7831 27.0527C12.5692 27.306 13.3977 27.4788 14.3399 27.5829C14.707 27.6232 16.293 27.6232 16.6601 27.5829C18.2865 27.403 19.6643 27.0006 21.0232 26.3069C21.2315 26.2004 21.2718 26.172 21.2434 26.1484C21.2245 26.1341 20.3366 24.9432 19.2713 23.5039L17.3348 20.8879L14.9081 17.2965C13.5729 15.3221 12.4745 13.7074 12.4649 13.7074C12.4555 13.7051 12.446 15.3008 12.4413 17.2492C12.4341 20.6606 12.4318 20.7979 12.3892 20.8784C12.3277 20.9944 12.2804 21.0417 12.1808 21.0939C12.1051 21.1317 12.0388 21.1388 11.6813 21.1388H11.2718L11.1628 21.0702C11.0953 21.0279 11.0405 20.9682 11.0042 20.8974L10.9545 20.7908L10.9593 16.0442L10.9664 11.2951L11.0398 11.2027C11.0777 11.1531 11.1582 11.0891 11.215 11.0584C11.312 11.011 11.3499 11.0063 11.7594 11.0063C12.2425 11.0063 12.3229 11.0252 12.4484 11.1625C12.4839 11.2004 13.7978 13.1796 15.3698 15.5635C16.9613 17.9766 18.5538 20.389 20.1472 22.8007L22.0649 25.7056L22.162 25.6417C23.0213 25.083 23.9304 24.2875 24.6501 23.4589C26.1818 21.6999 27.1691 19.555 27.5005 17.2681C27.5975 16.6029 27.6094 16.4064 27.6094 15.5043C27.6094 14.6023 27.5975 14.4059 27.5005 13.7406C26.8424 9.1928 23.606 5.37181 19.2169 3.9561C18.4427 3.70508 17.6189 3.53228 16.6956 3.42814C16.4683 3.4044 14.9034 3.37849 14.707 3.39738M19.6643 10.7222C19.7779 10.779 19.8703 10.8879 19.9035 11.0015C19.9223 11.0631 19.9271 12.3794 19.9223 15.3457L19.9152 19.6024L19.1648 18.4518L18.4119 17.3012V14.2071C18.4119 12.2066 18.4214 11.082 18.4356 11.0275C18.4735 10.895 18.5563 10.7909 18.67 10.7292C18.767 10.6796 18.8026 10.6747 19.1742 10.6747C19.5247 10.6747 19.5862 10.6796 19.6643 10.7222Z" fill="black"/>
</g>
<defs>
<clipPath id="clip0_1030_6747">
<rect width="31" height="31" fill="white"/>
</clipPath>
</defs>
</svg>
