<svg width="31" height="30" viewBox="0 0 31 30" fill="none" xmlns="http://www.w3.org/2000/svg">
<g clip-path="url(#clip0_1030_6822)">
<path d="M23.7344 0H7.26562C3.25293 0 0 3.148 0 7.03125V22.9688C0 26.852 3.25293 30 7.26562 30H23.7344C27.7471 30 31 26.852 31 22.9688V7.03125C31 3.148 27.7471 0 23.7344 0Z" fill="#677EEB"/>
<path fill-rule="evenodd" clip-rule="evenodd" d="M6.37669 19.3573C6.26297 19.1836 6.20183 18.9825 6.20023 18.7768C6.19862 18.5711 6.25661 18.3692 6.36761 18.1938L14.9001 4.72494C15.3747 3.97576 16.5206 4.04127 16.9007 4.8392L24.6954 21.2022C24.9846 21.8094 24.6517 22.5237 23.9899 22.7159L11.8648 26.2361C11.6274 26.305 11.3732 26.2969 11.141 26.2131C10.9087 26.1292 10.7112 25.9742 10.5785 25.7716L6.37669 19.3573ZM15.8844 8.66315C15.9666 8.26682 16.5276 8.20963 16.6933 8.58076L22.07 20.6206C22.0939 20.6741 22.1058 20.7318 22.1049 20.7901C22.1041 20.8483 22.0905 20.9058 22.065 20.9585C22.0396 21.0113 22.0029 21.0583 21.9573 21.0964C21.9117 21.1344 21.8583 21.1627 21.8006 21.1794L13.4231 23.5995C13.1152 23.6885 12.8202 23.4281 12.8835 23.1231L15.8844 8.66315Z" fill="#F7FAFC"/>
</g>
<defs>
<clipPath id="clip0_1030_6822">
<rect width="31" height="30" fill="white"/>
</clipPath>
</defs>
</svg>
