<svg width="30" height="31" viewBox="0 0 30 31" fill="none" xmlns="http://www.w3.org/2000/svg">
<g clip-path="url(#clip0_1030_6838)">
<path d="M22.9688 0H7.03125C3.148 0 0 3.25293 0 7.26562V23.7344C0 27.7471 3.148 31 7.03125 31H22.9688C26.852 31 30 27.7471 30 23.7344V7.26562C30 3.25293 26.852 0 22.9688 0Z" fill="#F4F2ED"/>
<path d="M14.9997 17.7949C16.2072 17.7949 17.186 16.7834 17.186 15.5357C17.186 14.2881 16.2072 13.2766 14.9997 13.2766C13.7922 13.2766 12.8135 14.2881 12.8135 15.5357C12.8135 16.7834 13.7923 17.7949 14.9997 17.7949Z" fill="#00D8FF"/>
<path d="M15.0002 10.9424C17.9355 10.9424 20.6624 11.3776 22.7184 12.1091C25.1957 12.9903 26.7188 14.3261 26.7188 15.5357C26.7188 16.7962 25.1046 18.2153 22.4443 19.126C20.4332 19.8146 17.7866 20.174 15.0002 20.174C12.1434 20.174 9.43816 19.8366 7.40426 19.1184C4.83105 18.2096 3.28125 16.7722 3.28125 15.5357C3.28125 14.3359 4.73555 13.0104 7.17797 12.1306C9.24164 11.387 12.0357 10.9424 14.9998 10.9424H15.0002Z" stroke="#00D8FF" stroke-width="0.556938"/>
<path d="M11.1303 13.2523C12.5968 10.6248 14.3238 8.40124 15.9642 6.92632C17.9404 5.14903 19.8213 4.45298 20.8352 5.05712C21.8919 5.6868 22.2752 7.84082 21.7097 10.6771C21.2826 12.8213 20.2614 15.3698 18.8694 17.8641C17.4421 20.4214 15.8079 22.6744 14.1899 24.1358C12.1426 25.9851 10.1631 26.6544 9.12662 26.0367C8.1208 25.4378 7.73619 23.4735 8.21877 20.8476C8.62646 18.6288 9.64963 15.9055 11.1298 13.2523H11.1303Z" stroke="#00D8FF" stroke-width="0.556938"/>
<path d="M11.1347 17.8707C9.66408 15.2461 8.66283 12.589 8.24494 10.3839C7.74185 7.727 8.09752 5.69565 9.1106 5.0897C10.1663 4.45807 12.1636 5.19069 14.2591 7.11342C15.8435 8.56703 17.4704 10.7536 18.8665 13.2455C20.2978 15.8003 21.3705 18.3887 21.7878 20.5669C22.3159 23.3235 21.8885 25.4297 20.8529 26.0491C19.8481 26.6502 18.0094 26.0139 16.0487 24.2703C14.3921 22.7974 12.6198 20.5214 11.1347 17.8707Z" stroke="#00D8FF" stroke-width="0.556938"/>
</g>
<defs>
<clipPath id="clip0_1030_6838">
<rect width="30" height="31" fill="white"/>
</clipPath>
</defs>
</svg>
