<svg width="30" height="31" viewBox="0 0 30 31" fill="none" xmlns="http://www.w3.org/2000/svg">
<g clip-path="url(#clip0_1030_6849)">
<path d="M22.9688 0H7.03125C3.148 0 0 3.25293 0 7.26562V23.7344C0 27.7471 3.148 31 7.03125 31H22.9688C26.852 31 30 27.7471 30 23.7344V7.26562C30 3.25293 26.852 0 22.9688 0Z" fill="#65AFFF"/>
<path opacity="0.45" d="M19.3987 3.02734L15.0007 10.1464H6.21094L10.6058 3.02734H19.3987Z" fill="black"/>
<path opacity="0.6" d="M15.0004 10.1464H23.7933L19.3984 3.02734H10.6055L15.0004 10.1464Z" fill="black"/>
<path opacity="0.8" d="M10.6058 17.2628L15.0007 10.1464L10.6058 3.02734L6.21094 10.1464L10.6058 17.2628Z" fill="black"/>
<path opacity="0.45" d="M10.6484 27.9414L15.0464 20.8223H23.8393L19.4413 27.9414H10.6484Z" fill="black"/>
<path opacity="0.6" d="M15.0468 20.8223H6.25391L10.6488 27.9414H19.4418L15.0468 20.8223Z" fill="black"/>
<path opacity="0.8" d="M19.4418 13.7061L15.0469 20.8224L19.4418 27.9415L23.8397 20.8224L19.4418 13.7061Z" fill="black"/>
</g>
<defs>
<clipPath id="clip0_1030_6849">
<rect width="30" height="31" fill="white"/>
</clipPath>
</defs>
</svg>
