<svg width="31" height="30" viewBox="0 0 31 30" fill="none" xmlns="http://www.w3.org/2000/svg">
<path d="M19.8087 11.275C19.6909 11.2747 19.5744 11.2504 19.4669 11.2036C19.3595 11.1569 19.2633 11.0888 19.1848 11.0038L18.3543 10.0963C18.2929 10.0295 18.2175 9.97616 18.1333 9.9396C18.049 9.90305 17.9577 9.88415 17.8654 9.88415C17.7731 9.88415 17.6818 9.90305 17.5975 9.9396C17.5133 9.97616 17.4379 10.0295 17.3765 10.0963L16.6635 10.875C16.5483 11.0015 16.4066 11.1029 16.2478 11.1723C16.089 11.2417 15.9168 11.2775 15.7425 11.2775H4.53088C4.20692 12.1742 4.00164 13.1071 3.91992 14.0538H14.5064C14.5982 14.0534 14.6889 14.0351 14.7732 14.0001C14.8575 13.9651 14.9337 13.9141 14.9973 13.85L15.9841 12.855C16.0449 12.7933 16.118 12.7443 16.1991 12.711C16.2802 12.6776 16.3675 12.6607 16.4555 12.6613H16.4956C16.6829 12.6613 16.8611 12.7375 16.9851 12.8738L17.8157 13.7813C17.8941 13.8665 17.9901 13.9349 18.0976 13.9818C18.2051 14.0288 18.3216 14.0533 18.4395 14.0538H27.0808C26.9991 13.1071 26.7938 12.1742 26.4698 11.2775L19.8087 11.275ZM10.3266 19.8925C10.4183 19.8921 10.5091 19.8739 10.5934 19.8389C10.6777 19.8039 10.7539 19.7528 10.8174 19.6888L11.8043 18.6938C11.8649 18.6318 11.938 18.5826 12.0191 18.549C12.1002 18.5155 12.1875 18.4984 12.2757 18.4988H12.3158C12.503 18.4988 12.6813 18.5763 12.8053 18.7113L13.6358 19.62C13.7142 19.7053 13.8103 19.7736 13.9178 19.8206C14.0253 19.8675 14.1418 19.892 14.2597 19.8925H25.97C26.4091 19.015 26.7295 18.0725 26.9206 17.0875H15.6818C15.564 17.0872 15.4476 17.0629 15.3401 17.0161C15.2326 16.9694 15.1365 16.9013 15.058 16.8163L14.2274 15.9075C14.166 15.8408 14.0907 15.7874 14.0064 15.7509C13.9222 15.7143 13.8309 15.6954 13.7385 15.6954C13.6462 15.6954 13.5549 15.7143 13.4706 15.7509C13.3864 15.7874 13.3111 15.8408 13.2496 15.9075L12.5366 16.6875C12.4213 16.8138 12.2796 16.9149 12.1208 16.9841C11.962 17.0533 11.7898 17.0889 11.6157 17.0888H4.0788C4.26996 18.075 4.59159 19.0163 5.03076 19.8925H10.3266ZM18.6333 8.2425C18.7255 8.24244 18.8167 8.22436 18.9015 8.18935C18.9863 8.15434 19.0629 8.10311 19.1267 8.03875L20.1123 7.04375C20.1729 6.9822 20.2459 6.93327 20.3267 6.89996C20.4075 6.86665 20.4946 6.84965 20.5824 6.85H20.6238C20.8098 6.85 20.9893 6.92625 21.112 7.0625L21.9425 7.97125C22.0212 8.05646 22.1175 8.12466 22.2252 8.1714C22.333 8.21814 22.4497 8.24236 22.5677 8.2425H24.7933C23.7111 6.84697 22.308 5.71447 20.6951 4.9347C19.0823 4.15493 17.3039 3.74932 15.501 3.75C13.6979 3.74913 11.9193 4.15464 10.3062 4.93442C8.69305 5.71419 7.28976 6.8468 6.20746 8.2425H18.6333ZM11.1158 22.6725C10.9976 22.6722 10.8809 22.6478 10.7732 22.6008C10.6654 22.5539 10.5692 22.4854 10.4906 22.4L9.66009 21.4925C9.59866 21.426 9.52342 21.3728 9.43928 21.3364C9.35515 21.2999 9.26401 21.2811 9.17184 21.2811C9.07967 21.2811 8.98853 21.2999 8.90439 21.3364C8.82026 21.3728 8.74502 21.426 8.68359 21.4925L7.97059 22.2712C7.85529 22.3975 7.71353 22.4986 7.55475 22.5678C7.39596 22.637 7.22377 22.6727 7.04963 22.6725H7.00184C8.08781 23.8028 9.40321 24.7039 10.8657 25.3195C12.3281 25.9351 13.9062 26.2519 15.501 26.25C17.0954 26.2515 18.6729 25.9346 20.1349 25.319C21.5969 24.7034 22.9119 23.8025 23.9976 22.6725H11.1158Z" fill="black"/>
</svg>
