<svg width="31" height="31" viewBox="0 0 31 31" fill="none" xmlns="http://www.w3.org/2000/svg">
<path d="M1.9375 1.9375H29.0625V29.0625H1.9375V1.9375Z" fill="#F5DE19"/>
<path d="M20.1587 23.129C20.3902 23.5982 20.7493 23.9925 21.1949 24.2667C21.6404 24.5409 22.1543 24.6838 22.6774 24.679C23.7334 24.679 24.4086 24.1511 24.4086 23.4197C24.4086 22.5478 23.715 22.2358 22.5525 21.7272L21.915 21.4541C20.0744 20.6703 18.8538 19.689 18.8538 17.6139C18.8538 15.7026 20.3069 14.2466 22.5864 14.2466C23.3243 14.1934 24.0615 14.3586 24.7061 14.7216C25.3507 15.0845 25.8743 15.6292 26.2114 16.2877L24.2187 17.5616C24.0888 17.2352 23.8628 16.9559 23.5706 16.7607C23.2784 16.5656 22.9338 16.4638 22.5825 16.4689C22.4292 16.4535 22.2744 16.4703 22.1279 16.5181C21.9815 16.5659 21.8466 16.6436 21.7318 16.7464C21.6171 16.8492 21.525 16.9748 21.4615 17.1152C21.398 17.2555 21.3644 17.4076 21.3629 17.5616C21.3629 18.326 21.8366 18.636 22.9303 19.1116L23.5677 19.3848C25.7339 20.3138 26.9584 21.2603 26.9584 23.3887C26.9584 25.6836 25.1555 26.9411 22.7346 26.9411C21.7914 27.0005 20.8512 26.7861 20.027 26.3236C19.2029 25.8611 18.53 25.1702 18.0894 24.3342L20.1587 23.129ZM11.1542 23.3499C11.5543 24.06 11.9185 24.6606 12.7943 24.6606C13.6313 24.6606 14.1602 24.3332 14.1602 23.0593V14.3919H16.709V23.0932C16.709 25.7321 15.159 26.9333 12.9028 26.9333C12.1052 26.9769 11.3132 26.7782 10.6307 26.3632C9.94828 25.9482 9.40737 25.3364 9.0791 24.6083L11.1542 23.3499Z" fill="black"/>
</svg>
