<svg width="24" height="24" viewBox="0 0 24 24" fill="none" xmlns="http://www.w3.org/2000/svg">
<g clip-path="url(#clip0_1342_24941)">
<path d="M24 12C24 14.1867 23.4667 16.2 22.4 18.04C21.3333 19.88 19.88 21.3333 18.04 22.4C16.2 23.4667 14.1867 24 12 24C9.81333 24 7.8 23.4667 5.96 22.4C4.12 21.3333 2.66667 19.88 1.6 18.04C0.533333 16.2 0 14.1867 0 12C0 9.81333 0.533333 7.8 1.6 5.96C2.66667 4.12 4.12 2.66667 5.96 1.6C7.8 0.533335 9.81333 0 12 0C14.1867 0 16.2 0.533335 18.04 1.6C19.88 2.66667 21.3333 4.12 22.4 5.96C23.4667 7.8 24 9.81333 24 12ZM12.4 8.88C11.2267 9.36 8.90667 10.3467 5.44 11.84C4.85333 12.1067 4.54667 12.3333 4.52 12.52C4.49333 12.7067 4.56 12.84 4.72 12.92C4.88 13 5.17333 13.12 5.6 13.28L5.84 13.36C6.69333 13.6267 7.32 13.76 7.72 13.76C8.12 13.76 8.56 13.6 9.04 13.28C12.2933 11.0933 13.9733 9.98667 14.08 9.96C14.1867 9.93333 14.2667 9.94667 14.32 10C14.3733 10.0533 14.3867 10.1333 14.36 10.24C14.3333 10.3467 13.44 11.2267 11.68 12.88L10.8 13.68C10.4267 14 10.2133 14.28 10.16 14.52C10.1067 14.76 10.32 15.0133 10.8 15.28L13.92 17.36C14.24 17.6267 14.5067 17.8133 14.72 17.92C14.9333 18.0267 15.1467 18.0533 15.36 18C15.7867 18 16.08 17.6 16.24 16.8C16.4533 15.4667 16.6933 14 16.96 12.4C17.28 10.4267 17.4933 9.01333 17.6 8.16C17.6 8 17.5867 7.85333 17.56 7.72C17.5333 7.58667 17.4667 7.46667 17.36 7.36C17.2533 7.25333 17.0933 7.2 16.88 7.2C16.6667 7.2 16.28 7.30667 15.72 7.52C15.16 7.73333 14.0533 8.18667 12.4 8.88Z" fill="white"/>
</g>
<defs>
<clipPath id="clip0_1342_24941">
<rect width="24" height="24" fill="white" transform="matrix(1 0 0 -1 0 24)"/>
</clipPath>
</defs>
</svg>
