<svg width="24" height="24" viewBox="0 0 24 24" fill="none" xmlns="http://www.w3.org/2000/svg">
<g clip-path="url(#clip0_1342_24950)">
<path d="M12.08 2.96009H12.24C13.7867 3.01342 15.2533 3.06676 16.64 3.12009C19.0933 3.17342 20.6667 3.30676 21.36 3.52009C21.8933 3.62675 22.3467 3.88009 22.72 4.28009C23.0933 4.68009 23.3467 5.13342 23.48 5.64009C23.6133 6.14676 23.7333 6.85342 23.84 7.76009L23.92 8.40009C23.9733 9.41342 24 10.4001 24 11.3601V11.5201C24 12.5334 23.9467 13.5468 23.84 14.5601V14.8801C23.7333 15.8934 23.6133 16.6668 23.48 17.2001C23.3467 17.7334 23.0933 18.1868 22.72 18.5601C22.3467 18.9334 21.8933 19.2001 21.36 19.3601C20.6133 19.5734 18.96 19.7068 16.4 19.7601C14.96 19.8134 13.52 19.8401 12.08 19.8401H11.92C10.48 19.8401 9.01333 19.8134 7.52 19.7601H6.64C4.61333 19.6534 3.30667 19.5201 2.72 19.3601C2.13333 19.2001 1.65333 18.9334 1.28 18.5601C0.906667 18.1868 0.64 17.7334 0.48 17.2001C0.32 16.6668 0.213333 15.8934 0.16 14.8801V14.5601C0.0533333 13.5468 0 12.5334 0 11.5201V11.3601C0 10.4001 0.0266667 9.49342 0.08 8.64009L0.16 7.76009C0.266667 6.85342 0.386667 6.14676 0.52 5.64009C0.653333 5.13342 0.906667 4.68009 1.28 4.28009C1.65333 3.88009 2.10667 3.62675 2.64 3.52009C3.28 3.36009 4.61333 3.22676 6.64 3.12009L7.52 3.04009C8.96 3.04009 10.3733 3.01342 11.76 2.96009H12.08ZM9.6 7.84009V15.0401L15.84 11.4401L9.6 7.84009Z" fill="white"/>
</g>
<defs>
<clipPath id="clip0_1342_24950">
<rect width="24" height="24" fill="white" transform="matrix(1 0 0 -1 0 24)"/>
</clipPath>
</defs>
</svg>
