<svg width="1450" height="1490" viewBox="0 0 1450 1490" fill="none" xmlns="http://www.w3.org/2000/svg">
<g clip-path="url(#clip0_1036_1160)">
<rect y="-93" width="240" height="240" stroke="#1E1A24"/>
<rect x="240" y="-93" width="240" height="240" stroke="#1E1A24"/>
<rect x="480" y="-93" width="240" height="240" stroke="#1E1A24"/>
<rect x="720" y="-93" width="240" height="240" stroke="#1E1A24"/>
<rect x="960" y="-93" width="240" height="240" stroke="#1E1A24"/>
<rect x="1200" y="-93" width="240" height="240" stroke="#1E1A24"/>
<rect y="147" width="240" height="240" stroke="#1E1A24"/>
<rect x="1200" y="147" width="240" height="240" stroke="#1E1A24"/>
<rect y="387" width="240" height="240" stroke="#1E1A24"/>
<rect x="1200" y="387" width="240" height="240" stroke="#1E1A24"/>
<rect y="627" width="240" height="240" stroke="#1E1A24"/>
<rect x="240" y="627" width="240" height="240" stroke="#1E1A24"/>
<rect x="960" y="627" width="240" height="240" stroke="#1E1A24"/>
<rect x="1200" y="627" width="240" height="240" stroke="#1E1A24"/>
<rect y="867" width="240" height="240" stroke="#1E1A24"/>
<rect x="240" y="867" width="240" height="240" stroke="#1E1A24"/>
<rect x="960" y="867" width="240" height="240" stroke="#1E1A24"/>
<rect x="1200" y="867" width="240" height="240" stroke="#1E1A24"/>
</g>
<defs>
<clipPath id="clip0_1036_1160">
<rect width="1450" height="1490" fill="white"/>
</clipPath>
</defs>
</svg>
