<svg width="440" height="508" viewBox="0 0 440 508" fill="none" xmlns="http://www.w3.org/2000/svg">
<path d="M0 69.5714H87.8M0 69.5714V157.143M0 69.5714V-18H87.8M87.8 69.5714V157.143M87.8 69.5714V-18M87.8 69.5714H175.6M87.8 157.143H0M87.8 157.143H175.6M87.8 157.143V244.714M0 157.143V244.714M87.8 -18H175.6M87.8 507.429H0V419.857M87.8 507.429H175.6V419.857M87.8 507.429V419.857M175.6 69.5714V157.143M175.6 69.5714V-18M175.6 69.5714H263.4M175.6 157.143H263.4M175.6 -18H263.4M263.4 69.5714V157.143M263.4 69.5714V-18M263.4 69.5714H351.2M263.4 157.143H351.2M263.4 -18H351.2M351.2 69.5714V157.143M351.2 69.5714V-18M351.2 69.5714H439M351.2 157.143H439M351.2 157.143V244.714M351.2 -18H439V69.5714M351.2 507.429H263.4V419.857M351.2 507.429H439V419.857M351.2 507.429V419.857M439 69.5714V157.143M439 157.143V244.714M87.8 244.714H0M87.8 244.714V332.286M0 244.714V332.286M439 244.714H351.2M439 244.714V332.286M351.2 244.714V332.286M87.8 332.286H0M87.8 332.286V419.857M87.8 332.286H175.6V419.857M0 332.286V419.857M439 332.286H351.2M439 332.286V419.857M351.2 332.286H263.4V419.857M351.2 332.286V419.857M87.8 419.857H0M87.8 419.857H175.6M351.2 419.857H263.4M351.2 419.857H439" stroke="#2C2634"/>
</svg>
