<svg width="24" height="24" viewBox="0 0 24 24" fill="none" xmlns="http://www.w3.org/2000/svg">
<g clip-path="url(#clip0_1342_24947)">
<path d="M12 0C9.76 0 8.09333 0.0266666 7 0.0799999C5.90667 0.133333 4.96 0.32 4.16 0.640001C3.36 0.960001 2.65333 1.42667 2.04 2.04C1.42667 2.65333 0.96 3.36 0.64 4.16C0.32 4.96 0.133333 5.90667 0.08 7C0.0266667 8.09333 0 9.76 0 12C0 14.24 0.0266667 15.9067 0.08 17C0.133333 18.0933 0.32 19.04 0.64 19.84C0.96 20.64 1.42667 21.3467 2.04 21.96C2.65333 22.5733 3.36 23.04 4.16 23.36C4.96 23.68 5.90667 23.8667 7 23.92C8.09333 23.9733 9.76 24 12 24C14.24 24 15.9067 23.9733 17 23.92C18.0933 23.8667 19.04 23.68 19.84 23.36C20.64 23.04 21.3467 22.5733 21.96 21.96C22.5733 21.3467 23.04 20.64 23.36 19.84C23.68 19.04 23.8667 18.0933 23.92 17C23.9733 15.9067 24 14.24 24 12C24 9.76 23.9733 8.09333 23.92 7C23.8667 5.90667 23.68 4.96 23.36 4.16C23.04 3.36 22.5733 2.65333 21.96 2.04C21.3467 1.42667 20.64 0.960001 19.84 0.640001C19.04 0.32 18.0933 0.133333 17 0.0799999C15.9067 0.0266666 14.24 0 12 0ZM10.96 2.16H12C14.24 2.16 15.8667 2.18667 16.88 2.24C17.7333 2.29333 18.44 2.42667 19 2.64C19.56 2.85333 20.04 3.16 20.44 3.56C20.84 3.96 21.1467 4.44 21.36 5C21.5733 5.56 21.7067 6.26667 21.76 7.12C21.8133 8.13333 21.84 9.76 21.84 12C21.84 14.24 21.8133 15.8667 21.76 16.88C21.7067 17.7333 21.5733 18.44 21.36 19C21.1467 19.56 20.84 20.04 20.44 20.44C20.04 20.84 19.56 21.1467 19 21.36C18.44 21.5733 17.7333 21.7067 16.88 21.76C15.8133 21.8133 14.1867 21.84 12 21.84C9.81333 21.84 8.18667 21.8133 7.12 21.76C6.26667 21.7067 5.56 21.5733 5 21.36C4.44 21.1467 3.96 20.84 3.56 20.44C3.16 20.04 2.85333 19.56 2.64 19C2.42667 18.44 2.29333 17.7333 2.24 16.88C2.18667 15.8133 2.16 14.1733 2.16 11.96C2.16 9.74667 2.18667 8.13333 2.24 7.12C2.29333 6.26667 2.42667 5.56 2.64 5C2.85333 4.44 3.16 3.96 3.56 3.56C3.96 3.16 4.44 2.85333 5 2.64C5.56 2.42667 6.29333 2.29333 7.2 2.24C8.10667 2.18667 9.36 2.16 10.96 2.16ZM18.4 4.16C18.0267 4.16 17.6933 4.29333 17.4 4.56C17.1067 4.82667 16.96 5.16 16.96 5.56C16.96 5.96 17.1067 6.30667 17.4 6.6C17.6933 6.89333 18.04 7.04 18.44 7.04C18.84 7.04 19.1733 6.89333 19.44 6.6C19.7067 6.30667 19.84 5.96 19.84 5.56C19.84 5.16 19.7067 4.82667 19.44 4.56C19.1733 4.29333 18.8267 4.16 18.4 4.16ZM12 5.84C10.88 5.84 9.84 6.10667 8.88 6.64C7.92 7.17333 7.16 7.92 6.6 8.88C6.04 9.84 5.76 10.88 5.76 12C5.76 13.12 6.04 14.16 6.6 15.12C7.16 16.08 7.92 16.8267 8.88 17.36C9.84 17.8933 10.88 18.16 12 18.16C13.12 18.16 14.1467 17.88 15.08 17.32C16.0133 16.76 16.7467 16.0133 17.28 15.08C17.8133 14.1467 18.08 13.12 18.08 12C18.08 10.88 17.8133 9.85333 17.28 8.92C16.7467 7.98667 16.0133 7.24 15.08 6.68C14.1467 6.12 13.12 5.84 12 5.84ZM12 8C12.6933 8 13.36 8.17333 14 8.52C14.64 8.86667 15.1333 9.36 15.48 10C15.8267 10.64 16 11.3067 16 12C16 12.6933 15.8267 13.36 15.48 14C15.1333 14.64 14.64 15.1333 14 15.48C13.36 15.8267 12.6933 16 12 16C10.88 16 9.93333 15.6133 9.16 14.84C8.38667 14.0667 8 13.12 8 12C8 10.88 8.38667 9.93333 9.16 9.16C9.93333 8.38667 10.88 8 12 8Z" fill="white"/>
</g>
<defs>
<clipPath id="clip0_1342_24947">
<rect width="24" height="24" fill="white" transform="matrix(1 0 0 -1 0 24)"/>
</clipPath>
</defs>
</svg>
