<svg width="63" height="63" viewBox="0 0 63 63" fill="none" xmlns="http://www.w3.org/2000/svg">
<path id="Subtract" fill-rule="evenodd" clip-rule="evenodd" d="M0 5.65685L5.65685 0L15.8934 10.2365C24.4849 18.8281 38.4146 18.8281 47.0061 10.2365L56.9999 0.242676L62.6568 5.89953L52.6629 15.8934C44.0714 24.4849 44.0714 38.4146 52.6629 47.0061L62.2254 56.5685L56.5685 62.2254L47.0061 52.6629C38.4146 44.0714 24.4849 44.0714 15.8934 52.6629L6.08825 62.4681L0.431397 56.8112L10.2365 47.0061C18.8281 38.4145 18.8281 24.4849 10.2365 15.8934L0 5.65685ZM29 24.707C26.2386 24.707 24 26.9456 24 29.707V33.707C24 36.4685 26.2386 38.707 29 38.707H33C35.7614 38.707 38 36.4685 38 33.707V29.707C38 26.9456 35.7614 24.707 33 24.707H29Z" fill="#D9D9D9"/>
</svg>
