<svg width="24" height="24" viewBox="0 0 24 24" fill="none" xmlns="http://www.w3.org/2000/svg">
<g clip-path="url(#clip0_1342_24956)">
<path d="M12 -8.7738e-05C10.08 -8.7738e-05 8.29335 0.413246 6.64002 1.23991C4.98669 2.06658 3.58669 3.22658 2.44002 4.71991C1.29335 6.21325 0.546686 7.89325 0.20002 9.75991C-0.146647 11.6266 -0.0666471 13.4666 0.44002 15.2799C0.946686 17.0932 1.82669 18.6932 3.08002 20.0799C4.33335 21.4666 5.84002 22.5066 7.60002 23.1999C7.44002 21.7066 7.46669 20.5599 7.68002 19.7599L9.04002 13.7599L8.88002 13.2799C8.77335 12.8532 8.72002 12.4266 8.72002 11.9999C8.72002 11.1466 8.93335 10.4399 9.36002 9.87991C9.78669 9.31991 10.2934 9.03991 10.88 9.03991C11.36 9.03991 11.7334 9.19991 12 9.51991C12.2667 9.83991 12.4 10.2399 12.4 10.7199C12.4 11.1999 12.2134 12.0266 11.84 13.1999L11.44 14.7199C11.28 15.3066 11.3867 15.8266 11.76 16.2799C12.1334 16.7332 12.6134 16.9599 13.2 16.9599C14.2667 16.9599 15.16 16.4399 15.88 15.3999C16.6 14.3599 16.96 13.0399 16.96 11.4399C16.96 9.99991 16.4934 8.82658 15.56 7.91991C14.6267 7.01325 13.4134 6.55991 11.92 6.55991C10.8534 6.55991 9.90669 6.79991 9.08002 7.27991C8.25335 7.75991 7.62669 8.39991 7.20002 9.19991C6.77335 9.99991 6.56002 10.8532 6.56002 11.7599C6.56002 12.2399 6.64002 12.7332 6.80002 13.2399C6.96002 13.7466 7.17335 14.1599 7.44002 14.4799C7.54669 14.5866 7.57335 14.6932 7.52002 14.7999L7.20002 16.1599C7.14669 16.3732 7.01335 16.4532 6.80002 16.3999C6.05335 16.0266 5.45335 15.3866 5.00002 14.4799C4.54669 13.5732 4.32002 12.6399 4.32002 11.6799C4.32002 10.3999 4.62669 9.21325 5.24002 8.11991C5.85335 7.02658 6.76002 6.14658 7.96002 5.47991C9.16002 4.81325 10.5867 4.47991 12.24 4.47991C13.6267 4.47991 14.88 4.77325 16 5.35991C17.12 5.94658 18.0134 6.77325 18.68 7.83991C19.3467 8.90658 19.68 10.1066 19.68 11.4399C19.68 12.7732 19.4134 14.0132 18.88 15.1599C18.3467 16.3066 17.6 17.2132 16.64 17.8799C15.68 18.5466 14.6134 18.8799 13.44 18.8799C12.8534 18.8799 12.2934 18.7466 11.76 18.4799C11.2267 18.2132 10.88 17.8666 10.72 17.4399L9.92002 20.3199C9.70669 21.1199 9.22669 22.1599 8.48002 23.4399C10.72 24.1332 12.9734 24.1599 15.24 23.5199C17.5067 22.8799 19.4267 21.6799 21 19.9199C22.5734 18.1599 23.5334 16.1199 23.88 13.7999C24.2267 11.4799 23.9067 9.23991 22.92 7.07991C21.9334 4.91991 20.4534 3.19991 18.48 1.91991C16.5067 0.639914 14.3467 -8.7738e-05 12 -8.7738e-05Z" fill="white"/>
</g>
<defs>
<clipPath id="clip0_1342_24956">
<rect width="24" height="24" fill="white" transform="matrix(1 0 0 -1 0 24)"/>
</clipPath>
</defs>
</svg>
